<svg xmlns="http://www.w3.org/2000/svg" viewBox="0 0 741 390"><rect width="741" height="390" fill="#fff"/><g fill="#b22234"><rect width="741" height="30"/><rect y="60" width="741" height="30"/><rect y="120" width="741" height="30"/><rect y="180" width="741" height="30"/><rect y="240" width="741" height="30"/><rect y="300" width="741" height="30"/><rect y="360" width="741" height="30"/></g><rect width="296.4" height="210" fill="#3c3b6e"/><g fill="#fff"><circle cx="25" cy="22" r="6"/><circle cx="74" cy="22" r="6"/><circle cx="123" cy="22" r="6"/><circle cx="172" cy="22" r="6"/><circle cx="221" cy="22" r="6"/><circle cx="270" cy="22" r="6"/><circle cx="49" cy="52" r="6"/><circle cx="98" cy="52" r="6"/><circle cx="147" cy="52" r="6"/><circle cx="196" cy="52" r="6"/><circle cx="245" cy="52" r="6"/><circle cx="25" cy="82" r="6"/><circle cx="74" cy="82" r="6"/><circle cx="123" cy="82" r="6"/><circle cx="172" cy="82" r="6"/><circle cx="221" cy="82" r="6"/><circle cx="270" cy="82" r="6"/><circle cx="49" cy="112" r="6"/><circle cx="98" cy="112" r="6"/><circle cx="147" cy="112" r="6"/><circle cx="196" cy="112" r="6"/><circle cx="245" cy="112" r="6"/><circle cx="25" cy="142" r="6"/><circle cx="74" cy="142" r="6"/><circle cx="123" cy="142" r="6"/><circle cx="172" cy="142" r="6"/><circle cx="221" cy="142" r="6"/><circle cx="270" cy="142" r="6"/><circle cx="49" cy="172" r="6"/><circle cx="98" cy="172" r="6"/><circle cx="147" cy="172" r="6"/><circle cx="196" cy="172" r="6"/><circle cx="245" cy="172" r="6"/><circle cx="25" cy="202" r="6"/><circle cx="74" cy="202" r="6"/><circle cx="123" cy="202" r="6"/><circle cx="172" cy="202" r="6"/><circle cx="221" cy="202" r="6"/><circle cx="270" cy="202" r="6"/></g></svg>